<?xml version="1.0" standalone="no"?>
<!DOCTYPE svg PUBLIC "-//W3C//DTD SVG 20010904//EN"
 "http://www.w3.org/TR/2001/REC-SVG-20010904/DTD/svg10.dtd">
<svg version="1.0" xmlns="http://www.w3.org/2000/svg"
 width="800.000000pt" height="800.000000pt" viewBox="0 0 800.000000 800.000000"
 preserveAspectRatio="xMidYMid meet">
<metadata>
Created by potrace 1.11, written by Peter Selinger 2001-2013
</metadata>
<g transform="translate(0.000000,800.000000) scale(0.100000,-0.100000)"
fill="#000000" stroke="none">
<path d="M0 4000 l0 -4000 4000 0 4000 0 0 4000 0 4000 -4000 0 -4000 0 0
-4000z m2804 1137 c60 -28 168 -127 181 -166 3 -12 15 -21 25 -21 23 0 47 -42
56 -99 5 -33 4 -41 -9 -41 -12 0 -16 -15 -19 -70 l-3 -70 138 0 c103 0 137 -3
137 -12 -1 -35 -16 -39 -153 -39 l-136 -1 -24 -51 c-13 -29 -94 -159 -180
-289 -134 -203 -160 -238 -181 -238 -14 0 -28 -4 -31 -10 -3 -5 -17 -10 -31
-10 -13 0 -24 5 -24 10 0 6 5 10 12 10 7 0 2 10 -10 22 l-22 22 -16 -22 c-8
-12 -26 -22 -39 -22 -13 0 -27 -4 -30 -10 -8 -14 -42 -13 -51 2 -5 8 -2 9 9 5
24 -9 21 -3 -13 35 -41 45 -53 88 -48 173 5 81 42 170 124 303 l45 72 158 0
c155 0 158 0 181 25 l23 25 -162 0 c-90 0 -161 3 -159 8 26 58 77 132 93 134
23 3 42 61 32 99 -8 33 -65 51 -104 33 -93 -41 -273 -118 -298 -126 -49 -16
-146 -65 -210 -105 l-60 -38 158 -3 c147 -2 157 -4 157 -22 0 -10 -4 -21 -9
-24 -4 -3 -96 -6 -202 -7 l-194 -2 -90 -67 c-154 -114 -267 -214 -418 -370
-96 -99 -152 -150 -166 -150 -12 0 -21 -4 -21 -10 0 -5 7 -10 16 -10 10 0 1
-18 -30 -58 -147 -192 -280 -437 -343 -634 l-38 -118 -222 0 c-155 0 -223 3
-223 11 0 6 9 55 20 110 38 186 136 413 257 597 55 84 58 91 39 95 -18 3 -17
6 11 16 21 8 59 46 108 107 98 122 233 263 369 386 l109 98 255 0 c231 0 256
2 268 18 7 9 14 20 14 24 0 4 -105 9 -232 10 l-233 3 90 67 c50 37 98 68 108
68 10 0 62 27 114 60 53 33 100 60 104 60 5 0 6 6 3 13 -7 18 223 127 351 166
150 46 255 60 445 57 155 -2 169 -4 224 -29z m1961 22 c33 -6 80 -21 105 -34
53 -27 120 -95 139 -142 12 -30 22 -37 43 -34 8 1 24 -48 34 -101 5 -31 3 -38
-10 -38 -13 0 -16 -12 -16 -70 l0 -70 115 0 c111 0 115 -1 105 -19 -5 -11 -10
-22 -10 -25 0 -3 109 -6 243 -6 l244 0 23 25 23 25 -241 0 c-133 0 -242 2
-242 5 0 3 23 35 52 70 32 41 59 65 72 66 28 1 133 126 110 131 -11 2 7 29 60
93 72 84 106 114 133 115 6 0 25 -12 42 -26 l31 -26 31 26 c40 34 57 33 112
-10 47 -37 87 -102 87 -142 0 -15 6 -22 20 -22 17 0 20 -7 20 -39 0 -66 -10
-100 -32 -103 -15 -2 -25 -19 -39 -63 -10 -33 -19 -63 -19 -67 0 -4 67 -9 149
-10 l149 -3 -17 -22 c-16 -19 -30 -22 -161 -27 -111 -4 -146 -8 -152 -20 -13
-22 -100 -265 -153 -423 -44 -130 -50 -143 -72 -143 -12 0 -23 -4 -23 -10 0
-5 9 -10 21 -10 15 0 19 -4 15 -16 -19 -49 -127 -416 -124 -419 2 -3 61 71
131 163 70 92 146 189 168 217 35 41 38 50 24 55 -16 6 -16 7 1 20 9 8 19 14
21 13 13 -10 41 21 200 220 98 122 204 252 236 290 l58 67 246 0 c197 0 244
-3 240 -13 -3 -7 -85 -110 -183 -228 -99 -118 -201 -242 -228 -277 -27 -34
-53 -63 -57 -63 -5 -1 -13 -3 -19 -4 -5 -1 -14 -3 -20 -4 -16 -2 -11 -21 6
-21 10 0 -6 -27 -46 -77 -117 -149 -427 -549 -496 -640 l-69 -92 -382 -1
c-211 0 -383 4 -383 9 0 9 85 349 130 521 17 63 42 150 56 193 14 43 23 81 20
84 -3 4 -7 4 -9 2 -2 -2 -44 -53 -93 -114 -113 -137 -342 -432 -458 -587 -80
-108 -90 -118 -120 -118 -30 0 -56 -15 -56 -31 0 -5 10 -6 21 -4 31 6 43 -4
26 -23 -13 -16 -197 -281 -197 -285 0 -1 35 -2 77 -3 43 0 131 -2 196 -2 l117
-2 -52 -80 -53 -80 -100 0 c-55 0 -124 -3 -154 -7 l-54 -6 5 86 6 87 -73 0
c-39 0 -126 3 -192 6 l-120 7 24 60 c13 33 48 99 78 148 l53 89 -39 0 c-21 0
-39 4 -39 8 0 19 27 32 65 32 39 0 42 2 85 67 61 93 229 327 380 528 161 214
167 225 146 225 -10 0 -13 6 -10 15 4 8 17 15 30 15 17 0 38 19 80 73 159 201
303 378 351 432 29 33 53 63 53 67 0 9 -141 10 -187 2 -27 -5 -33 -12 -42 -47
-15 -62 -92 -212 -149 -293 -76 -107 -209 -244 -237 -244 -28 0 -43 -17 -20
-22 10 -2 -22 -32 -82 -79 -277 -216 -629 -384 -1008 -481 -103 -26 -144 -31
-291 -35 l-172 -5 -77 -104 -77 -104 -136 -2 c-169 -3 -273 -5 -289 -7 -7 0
-13 -9 -13 -20 0 -17 11 -19 197 -20 108 -1 198 -2 199 -4 1 -1 -43 -67 -98
-145 -55 -79 -98 -146 -95 -148 2 -2 87 -7 188 -10 101 -3 185 -7 186 -8 1 0
-23 -36 -53 -79 l-55 -77 -69 0 c-45 0 -70 4 -70 11 0 8 -4 8 -12 2 -7 -6 -41
-13 -75 -17 -61 -7 -63 -6 -69 19 -4 14 -3 53 0 86 l7 59 -118 2 c-65 1 -151
0 -192 -2 l-74 -2 7 33 c7 40 65 163 107 232 l29 47 -140 0 -140 0 -27 -38
c-56 -76 -114 -138 -183 -197 l-71 -60 88 -6 c48 -4 133 -7 188 -8 l99 -1 -69
-46 c-39 -25 -97 -60 -130 -79 l-60 -33 -210 -6 c-192 -6 -215 -9 -273 -32
-136 -54 -228 -68 -462 -68 -199 -1 -221 1 -290 22 -41 13 -92 34 -113 47
l-38 22 138 7 c76 3 159 5 186 3 26 -1 47 0 47 3 0 3 -15 17 -34 32 -31 25
-96 112 -96 129 0 4 85 5 188 2 l188 -5 69 42 c87 54 206 144 283 215 l60 55
205 0 c194 0 205 1 210 19 3 11 2 22 -1 25 -3 3 -86 6 -184 6 l-179 0 61 71
c34 39 59 73 56 76 -2 3 -37 -1 -78 -7 -44 -7 -149 -10 -264 -8 -189 3 -191 3
-250 33 -95 49 -165 170 -122 213 7 7 41 12 83 12 89 0 268 21 505 59 255 41
357 51 518 51 153 0 227 -14 292 -55 65 -41 121 -144 105 -194 -5 -17 -21 -19
-179 -26 l-174 -7 -7 -57 c-4 -31 -16 -78 -26 -106 -10 -27 -19 -51 -19 -52 0
-2 62 -3 139 -3 l138 0 122 183 c125 186 179 261 357 491 90 117 99 132 80
136 -17 5 -18 7 -6 15 8 5 24 11 34 12 11 2 20 4 21 6 10 18 328 404 428 520
l50 57 213 0 c201 0 214 1 224 19 5 11 10 22 10 25 0 3 -91 6 -202 6 -157 0
-199 3 -190 12 18 18 15 28 -10 29 -59 1 -198 89 -155 97 15 3 15 6 2 32 -18
35 -19 77 -2 94 6 6 50 18 97 25 109 16 239 47 465 111 157 44 323 81 420 93
68 9 306 6 360 -4z m2209 -25 c9 -8 19 -26 22 -40 8 -31 10 -30 41 6 72 87
128 47 125 -89 -1 -39 3 -57 15 -66 14 -10 13 -18 -12 -73 -18 -41 -34 -62
-45 -62 -9 0 -35 -28 -61 -67 l-45 -68 -247 -3 c-136 -1 -247 1 -247 4 0 4 24
35 53 70 32 39 60 63 73 63 13 1 41 24 72 62 48 56 66 89 42 74 -5 -3 -10 -2
-10 2 0 14 184 203 197 203 6 0 19 -7 27 -16z m-5694 -468 c0 -2 -15 -14 -34
-25 -32 -20 -47 -21 -345 -21 l-312 0 28 25 28 24 318 1 c174 0 317 -2 317 -4z
m2533 -1472 c3 -4 2 -15 -4 -25 -9 -18 -26 -19 -264 -19 -140 0 -255 4 -255 9
0 20 31 30 105 34 155 6 412 7 418 1z m2477 -8 c0 -33 -25 -36 -249 -34 l-221
3 15 23 c16 22 19 22 236 22 179 0 219 -2 219 -14z m1200 7 c0 -5 -7 -16 -14
-25 -12 -17 -42 -18 -380 -18 -357 0 -366 0 -366 20 0 17 8 20 83 23 174 7
677 7 677 0z m-6684 -175 c0 -73 2 -142 5 -153 4 -19 -2 -20 -81 -23 -47 -1
-134 1 -195 5 l-109 8 -19 49 c-18 50 -37 197 -29 229 4 15 23 17 216 17 l211
0 1 -132z m4988 120 c-5 -7 -52 -73 -107 -146 -54 -74 -97 -135 -95 -137 2 -2
87 -7 189 -11 l186 -7 -55 -78 -56 -79 -91 0 c-49 0 -138 -3 -197 -7 l-107 -6
-12 29 c-6 16 -15 55 -21 87 l-10 57 -72 0 c-40 0 -128 3 -196 7 l-122 6 6 71
c7 73 24 191 31 214 3 9 86 12 370 12 290 0 365 -3 359 -12z m-3244 -465 c0
-17 -53 -73 -71 -73 -20 0 -62 57 -53 72 6 9 124 11 124 1z m1730 -3 c0 -23
-51 -90 -69 -90 -27 0 -80 77 -64 94 11 10 133 7 133 -4z m1170 2 c0 -17 -62
-91 -81 -97 -12 -4 -37 3 -64 19 l-45 25 -25 -25 c-13 -13 -29 -24 -35 -24
-20 0 -54 22 -93 59 l-38 36 83 6 c136 9 298 10 298 1z m-3080 -32 c-26 -37
-36 -43 -59 -35 -15 4 -41 43 -41 60 0 3 27 5 61 5 l60 0 -21 -30z m1750 25
c0 -3 -11 -23 -25 -45 -38 -60 -77 -49 -100 28 -6 21 -4 22 59 22 36 0 66 -2
66 -5z"/>
<path d="M4495 4849 c-60 -16 -130 -33 -155 -38 -72 -13 -294 -83 -302 -95 -4
-6 -8 -19 -8 -28 0 -16 14 -18 159 -18 l158 0 -5 -25 c-4 -25 -6 -25 -101 -26
-53 0 -127 0 -166 1 l-70 1 -39 -72 c-46 -86 -128 -196 -284 -381 -88 -106
-120 -138 -138 -138 -13 0 -24 -4 -24 -10 0 -5 7 -10 15 -10 9 0 -32 -57 -96
-135 -61 -75 -109 -138 -107 -140 7 -7 185 44 303 87 140 51 401 178 385 188
-15 9 -1 19 38 26 105 18 442 311 551 478 28 43 51 85 51 92 0 10 -15 14 -52
14 l-51 0 23 25 c18 19 34 25 66 25 49 0 54 8 54 86 0 41 4 54 15 54 28 0 7
37 -32 58 -32 18 -66 14 -188 -19z"/>
<path d="M1401 2840 l-184 -5 26 -31 c41 -49 78 -60 151 -45 65 13 196 68 196
82 0 5 -1 8 -2 7 -2 -1 -86 -5 -187 -8z"/>
</g>
</svg>
